Coordinates
version=1
nRows=25
nColumns=33
inDegrees=yes

Units are S.I. units (second, meters, Newtons, ...)
Angles are in degrees.

endheader
time	ground_thorax_rot_x	ground_thorax_rot_y	ground_thorax_rot_z	ground_thorax_tx	ground_thorax_ty	ground_thorax_tz	clav_prot_r	clav_elev_r	scapula_abduction_r	scapula_elevation_r	scapula_upward_rot_r	scapula_winging_r	shoulder_elv_r	plane_of_elev_r	axial_rot_r	elbow_flexion_r	pro_sup_r	wrist_flex_r	wrist_dev_r	clav_prot_l	clav_elev_l	scapula_abduction_l	scapula_elevation_l	scapula_upward_rot_l	scapula_winging_l	shoulder_elv_l	plane_of_elev_l	axial_rot_l	elbow_flexion_l	pro_sup_l	wrist_flex_l	wrist_dev_l	
3.8200	-37.448429	-9.064967	14.142434	-251.040070	834.650280	6.489649	9.202038	-45.000000	38.632071	-45.000000	-45.000000	2776.911890	-2265.767679	148.918584	-104.645852	1104.719488	152.370667	13.392630	4.852495	14.442859	37.810456	-36.330394	-45.000000	-45.000000	-993.497269	2063.448706	141.699046	152.393370	1102.605928	173.766661	-1.995626	-10.574624	
3.8300	-37.490451	-9.280743	14.180001	-250.746566	833.955207	6.438305	9.230252	-45.000000	38.714973	-45.000000	-45.000000	2776.940795	-2265.810018	149.006639	-104.494021	1104.757878	152.495713	13.313248	4.858981	14.471758	37.761603	-36.181289	-45.000000	-45.000000	-993.661944	2063.460676	141.660014	152.757854	1102.590806	173.537126	-1.975363	-10.620938	
3.8400	-37.550041	-9.483535	14.202568	-250.422475	833.263178	6.392637	9.249152	-45.000000	38.769703	-45.000000	-45.000000	2776.973464	-2265.855283	149.085353	-104.361303	1104.804016	152.642107	13.210945	4.851388	14.541400	37.712748	-36.056201	-45.000000	-45.000000	-993.824142	2063.464958	141.637410	153.126318	1102.586204	173.283561	-1.955316	-10.665221	
3.8500	-37.625910	-9.667632	14.211623	-250.012326	832.572764	6.356175	9.272243	-45.000000	38.807039	-45.000000	-45.000000	2777.008669	-2265.907412	149.137981	-104.268641	1104.849836	152.837395	13.150650	4.879984	14.563462	37.682816	-35.976620	-45.000000	-45.000000	-993.953740	2063.458333	141.581239	153.517089	1102.575080	172.986715	-1.936348	-10.712671	
3.8600	-37.718678	-9.835453	14.207575	-249.536372	831.890052	6.331842	9.288761	-45.000000	38.823840	-45.000000	-45.000000	2777.048900	-2265.961445	149.171543	-104.211084	1104.896997	153.079044	13.106126	4.922872	14.575197	37.666648	-35.935124	-45.000000	-45.000000	-994.060146	2063.444238	141.509623	153.925360	1102.562352	172.641425	-1.914577	-10.762446	
3.8700	-37.827481	-9.978645	14.189540	-249.009433	831.221803	6.321883	9.292322	-45.000000	38.810752	-45.000000	-45.000000	2777.094784	-2266.014264	149.189649	-104.186264	1104.938510	153.368593	13.073128	4.976517	14.592432	37.665802	-35.941214	-45.000000	-45.000000	-994.140345	2063.414723	141.425299	154.343876	1102.544621	172.241246	-1.889117	-10.815440	
3.8800	-37.946419	-10.100877	14.160500	-248.465540	830.577185	6.326707	9.278511	-45.000000	38.775770	-45.000000	-45.000000	2777.144886	-2266.061945	149.195572	-104.183287	1104.973999	153.701407	13.043122	5.032203	14.618988	37.676871	-35.982919	-45.000000	-45.000000	-994.199588	2063.376411	141.336280	154.765548	1102.523206	171.786031	-1.856859	-10.871299	
3.8900	-38.070073	-10.201286	14.124037	-247.943593	829.966805	6.344391	9.242566	-45.000000	38.716178	-45.000000	-45.000000	2777.200371	-2266.100325	149.198689	-104.192540	1104.998230	154.069482	13.006563	5.083069	14.675801	37.698124	-36.054833	-45.000000	-45.000000	-994.239874	2063.326398	141.249754	155.175829	1102.494535	171.283130	-1.817662	-10.929474	
3.9000	-38.189485	-10.282039	14.083321	-247.474216	829.400992	6.370736	9.190569	-45.000000	38.646560	-45.000000	-45.000000	2777.254791	-2266.129879	149.196707	-104.206737	1105.012040	154.466827	12.966749	5.131323	14.740482	37.725263	-36.140614	-45.000000	-45.000000	-994.268278	2063.275443	141.166368	155.567937	1102.461263	170.745766	-1.771573	-10.987354	
3.9100	-38.301179	-10.344401	14.041875	-247.078138	828.889749	6.399951	9.127608	-45.000000	38.566388	-45.000000	-45.000000	2777.306292	-2266.151018	149.196471	-104.226866	1105.015112	154.888214	12.921479	5.177833	14.815755	37.756036	-36.229067	-45.000000	-45.000000	-994.284873	2063.224595	141.085005	155.935642	1102.421718	170.193318	-1.721272	-11.041749	
3.9200	-38.402567	-10.388714	13.991965	-246.764569	828.441207	6.425715	9.068625	-45.000000	38.492142	-45.000000	-45.000000	2777.345497	-2266.169124	149.184402	-104.255323	1105.018993	155.331237	12.870484	5.222624	14.870866	37.781673	-36.304572	-45.000000	-45.000000	-994.300684	2063.189411	141.012894	156.283971	1102.391867	169.646422	-1.671203	-11.085601	
3.9300	-38.490225	-10.428406	13.943217	-246.531930	828.061075	6.442168	9.015308	-45.000000	38.430106	-45.000000	-44.999999	2777.378385	-2266.180606	149.174362	-104.301070	1105.023756	155.794640	12.814200	5.266614	14.915239	37.802623	-36.350589	-45.000000	-45.000000	-994.311047	2063.170775	140.939897	156.619167	1102.365084	169.127891	-1.623430	-11.116479	
3.9400	-38.564764	-10.451300	13.886031	-246.368851	827.751440	6.444927	8.980244	-45.000000	38.378087	-45.000000	-44.999999	2777.393876	-2266.192703	149.146902	-104.371397	1105.030801	156.277407	12.753618	5.310670	14.928925	37.813299	-36.378826	-45.000000	-45.000000	-994.327135	2063.172345	140.877352	156.948206	1102.355443	168.657196	-1.583669	-11.128427	
3.9500	-38.624027	-10.473313	13.834353	-246.256725	827.510261	6.431536	8.955044	-45.000000	38.340335	-45.000000	-44.999998	2777.405402	-2266.198239	149.123077	-104.474153	1105.037706	156.781465	12.690674	5.354170	14.935076	37.819195	-36.382503	-45.000000	-44.999999	-994.337749	2063.187712	140.808368	157.281497	1102.350023	168.250351	-1.551513	-11.122920	
3.9600	-38.670695	-10.485271	13.778794	-246.171926	827.331550	6.401985	8.945343	-45.000000	38.309901	-45.000000	-44.999997	2777.405994	-2266.204872	149.080746	-104.613936	1105.042728	157.304263	12.625874	5.399122	14.923284	37.816053	-36.383437	-45.000000	-44.999999	-994.350554	2063.209567	140.745644	157.626136	1102.355617	167.918346	-1.529299	-11.098299	
3.9700	-38.702195	-10.508958	13.735251	-246.088409	827.206046	6.358232	8.936022	-45.000000	38.298066	-45.000000	-44.999995	2777.417949	-2266.202571	149.050178	-104.791903	1105.046196	157.844697	12.561417	5.442299	14.923314	37.813242	-36.366183	-45.000000	-44.999998	-994.356876	2063.234317	140.666855	157.990878	1102.357072	167.668784	-1.514129	-11.060108	
3.9800	-38.723897	-10.524059	13.692280	-245.979681	827.122889	6.304213	8.936517	-45.000000	38.290319	-45.000000	-44.999990	2777.425034	-2266.204047	149.006603	-105.008093	1105.046572	158.397642	12.497212	5.486271	14.917611	37.804459	-36.360624	-45.000000	-44.999996	-994.370481	2063.254603	140.589588	158.379408	1102.363813	167.505141	-1.507725	-11.008840	
3.9900	-38.734875	-10.551529	13.663755	-245.819916	827.070364	6.244836	8.938103	-45.000000	38.303129	-45.000000	-44.999982	2777.446520	-2266.199251	148.978279	-105.257940	1105.050127	158.963664	12.434596	5.526840	14.922476	37.797583	-36.341881	-45.000000	-44.999993	-994.387084	2063.280256	140.492336	158.801749	1102.367634	167.426246	-1.507501	-10.950242	
4.0000	-38.741120	-10.575789	13.640037	-245.584886	827.037976	6.185726	8.954223	-45.000000	38.322152	-45.000000	-44.999968	2777.461720	-2266.200469	148.936625	-105.540117	1105.053852	159.541031	12.372503	5.568995	14.914277	37.782577	-36.334095	-45.000000	-44.999987	-994.418224	2063.307775	140.394866	159.261387	1102.377029	167.429174	-1.513690	-10.884945	
4.0100	-38.742159	-10.611619	13.628878	-245.251958	827.016814	6.132076	8.978495	-45.000000	38.360490	-45.000000	-44.999943	2777.492265	-2266.197732	148.907509	-105.847068	1105.062144	160.135272	12.312396	5.608296	14.906160	37.769608	-36.312804	-45.000000	-44.999977	-994.460899	2063.348539	140.278493	159.760561	1102.387527	167.509502	-1.525281	-10.817017	
4.0200	-38.746747	-10.635180	13.614548	-244.800424	827.000547	6.088562	9.021836	-45.000000	38.393487	-45.000000	-44.999899	2777.521510	-2266.202497	148.857005	-106.177277	1105.066901	160.758673	12.253969	5.649348	14.875202	37.748642	-36.321176	-45.000000	-44.999959	-994.517474	2063.387498	140.168610	160.297284	1102.403532	167.667871	-1.543951	-10.746582	
4.0300	-38.751871	-10.658983	13.601475	-244.211172	826.984774	6.058589	9.073032	-45.000000	38.436261	-45.000000	-44.999819	2777.568175	-2266.204978	148.804745	-106.522985	1105.073648	161.425415	12.196780	5.689794	14.839210	37.729789	-36.338675	-45.000000	-44.999926	-994.585130	2063.432753	140.052477	160.859687	1102.421670	167.908573	-1.566901	-10.674451	
4.0400	-38.759779	-10.673941	13.586187	-243.467120	826.967219	6.044446	9.131359	-45.000000	38.467272	-45.000000	-44.999675	2777.620497	-2266.208621	148.727971	-106.885588	1105.071639	162.151762	12.139751	5.735912	14.795804	37.708294	-36.390615	-45.000000	-44.999868	-994.655163	2063.469717	139.940779	161.433253	1102.442134	168.244907	-1.590626	-10.599092	
4.0500	-38.769856	-10.679762	13.570110	-242.552626	826.946770	6.046997	9.171764	-45.000000	38.486786	-45.000000	-44.999418	2777.697773	-2266.203255	148.647901	-107.259875	1105.068257	162.958301	12.081416	5.786043	14.786534	37.704234	-36.467251	-45.000000	-44.999763	-994.714321	2063.507384	139.810908	161.990760	1102.464609	168.698669	-1.613887	-10.518495	
4.0600	-38.785412	-10.669376	13.549952	-241.453992	826.922984	6.065988	9.193781	-45.000000	38.482984	-45.000000	-44.998957	2777.791263	-2266.192130	148.549608	-107.645716	1105.058408	163.865741	12.020482	5.842871	14.809518	37.713533	-36.590787	-45.000000	-44.999575	-994.754044	2063.535511	139.673200	162.515025	1102.490205	169.294234	-1.633329	-10.429992	
